<svg width="256" height="256" viewBox="0 0 256 256" fill="none" xmlns="http://www.w3.org/2000/svg">
  <defs>
    <linearGradient id="g1" x1="0" y1="0" x2="1" y2="1">
      <stop offset="0%" stop-color="#22c55e"/>
      <stop offset="100%" stop-color="#10b981"/>
    </linearGradient>
    <linearGradient id="g2" x1="0" y1="0" x2="1" y2="1">
      <stop offset="0%" stop-color="#0ea5e9"/>
      <stop offset="100%" stop-color="#22c55e"/>
    </linearGradient>
    <filter id="shadow" x="-20%" y="-20%" width="140%" height="140%">
      <feDropShadow dx="0" dy="2" stdDeviation="4" flood-color="rgba(0,0,0,0.25)"/>
    </filter>
  </defs>
  <rect x="16" y="16" width="224" height="224" rx="36" fill="#0b1220"/>
  <g filter="url(#shadow)">
    <path d="M64 144c0-48 40-88 88-88h8c-8 20-12 40-12 60 0 28 10 48 20 64-56 0-104-16-104-36Z" fill="url(#g1)"/>
    <path d="M116 188c24-8 40-28 52-52-2-22 0-44 8-68 16 10 28 28 28 48 0 44-40 80-88 80-4 0-8 0-12-1Z" fill="url(#g2)"/>
  </g>
  <g>
    <text x="50%" y="50%" dominant-baseline="middle" text-anchor="middle" font-family="Inter, system-ui, -apple-system, Segoe UI, Roboto, Arial" font-size="72" font-weight="800" fill="#e6eef6" opacity="0.95">TN</text>
  </g>
</svg>

